<mxfile host="65bd71144e">
    <diagram name="Use Case" id="mQaCulovv7ul4VwpMXmZ">
        <mxGraphModel dx="1271" dy="682" grid="1" gridSize="10" guides="1" tooltips="1" connect="1" arrows="1" fold="1" page="1" pageScale="1" pageWidth="2339" pageHeight="3300" math="0" shadow="0">
            <root>
                <mxCell id="0"/>
                <mxCell id="1" parent="0"/>
                <mxCell id="e3ZQKRUdp-5UI-5q3_ky-1" value="Attendant" style="shape=umlActor;verticalLabelPosition=bottom;verticalAlign=top;html=1;outlineConnect=0;" parent="1" vertex="1">
                    <mxGeometry x="20" y="180" width="30" height="60" as="geometry"/>
                </mxCell>
                <mxCell id="e3ZQKRUdp-5UI-5q3_ky-2" value="Werkstatt" style="swimlane;whiteSpace=wrap;html=1;" parent="1" vertex="1">
                    <mxGeometry x="100" y="50" width="190" height="620" as="geometry"/>
                </mxCell>
                <mxCell id="e3ZQKRUdp-5UI-5q3_ky-3" value="Requesting Service" style="ellipse;whiteSpace=wrap;html=1;" parent="e3ZQKRUdp-5UI-5q3_ky-2" vertex="1">
                    <mxGeometry x="30" y="40" width="140" height="70" as="geometry"/>
                </mxCell>
                <mxCell id="e3ZQKRUdp-5UI-5q3_ky-18" value="Generating customer service budget" style="ellipse;whiteSpace=wrap;html=1;" parent="e3ZQKRUdp-5UI-5q3_ky-2" vertex="1">
                    <mxGeometry x="30" y="210" width="140" height="70" as="geometry"/>
                </mxCell>
                <mxCell id="e3ZQKRUdp-5UI-5q3_ky-20" value="Authorizing Maintenance planning" style="ellipse;whiteSpace=wrap;html=1;" parent="e3ZQKRUdp-5UI-5q3_ky-2" vertex="1">
                    <mxGeometry x="30" y="425" width="140" height="70" as="geometry"/>
                </mxCell>
                <mxCell id="e3ZQKRUdp-5UI-5q3_ky-21" value="&amp;lt;&amp;lt;includes&amp;gt;&amp;gt;" style="html=1;verticalAlign=bottom;endArrow=open;dashed=1;endSize=8;edgeStyle=elbowEdgeStyle;elbow=vertical;curved=0;rounded=0;entryX=0.5;entryY=0;entryDx=0;entryDy=0;exitX=0.5;exitY=1;exitDx=0;exitDy=0;" parent="e3ZQKRUdp-5UI-5q3_ky-2" source="e3ZQKRUdp-5UI-5q3_ky-18" target="e3ZQKRUdp-5UI-5q3_ky-20" edge="1">
                    <mxGeometry relative="1" as="geometry">
                        <mxPoint x="150" y="330" as="sourcePoint"/>
                        <mxPoint x="95" y="260" as="targetPoint"/>
                        <Array as="points">
                            <mxPoint x="70" y="310"/>
                        </Array>
                    </mxGeometry>
                </mxCell>
                <mxCell id="e3ZQKRUdp-5UI-5q3_ky-30" value="" style="ellipse;html=1;shape=endState;fillColor=#000000;strokeColor=#ff0000;" parent="e3ZQKRUdp-5UI-5q3_ky-2" vertex="1">
                    <mxGeometry x="85" y="560" width="30" height="30" as="geometry"/>
                </mxCell>
                <mxCell id="e3ZQKRUdp-5UI-5q3_ky-31" value="" style="endArrow=none;html=1;rounded=0;entryX=0.5;entryY=1;entryDx=0;entryDy=0;exitX=0.5;exitY=0;exitDx=0;exitDy=0;" parent="e3ZQKRUdp-5UI-5q3_ky-2" source="e3ZQKRUdp-5UI-5q3_ky-30" target="e3ZQKRUdp-5UI-5q3_ky-20" edge="1">
                    <mxGeometry width="50" height="50" relative="1" as="geometry">
                        <mxPoint x="110" y="500" as="sourcePoint"/>
                        <mxPoint x="160" y="450" as="targetPoint"/>
                    </mxGeometry>
                </mxCell>
                <mxCell id="e3ZQKRUdp-5UI-5q3_ky-4" value="" style="endArrow=none;html=1;rounded=0;entryX=0.021;entryY=0.686;entryDx=0;entryDy=0;entryPerimeter=0;exitX=1;exitY=0.3333333333333333;exitDx=0;exitDy=0;exitPerimeter=0;" parent="1" source="e3ZQKRUdp-5UI-5q3_ky-1" target="e3ZQKRUdp-5UI-5q3_ky-3" edge="1">
                    <mxGeometry width="50" height="50" relative="1" as="geometry">
                        <mxPoint x="120" y="320" as="sourcePoint"/>
                        <mxPoint x="170" y="270" as="targetPoint"/>
                    </mxGeometry>
                </mxCell>
                <mxCell id="e3ZQKRUdp-5UI-5q3_ky-8" value="Work center" style="swimlane;whiteSpace=wrap;html=1;" parent="1" vertex="1">
                    <mxGeometry x="370" y="50" width="520" height="620" as="geometry"/>
                </mxCell>
                <mxCell id="e3ZQKRUdp-5UI-5q3_ky-40" value="&amp;lt;&amp;lt;extends&amp;gt;&amp;gt;" style="endArrow=open;endSize=12;dashed=1;html=1;rounded=0;entryX=0.5;entryY=1;entryDx=0;entryDy=0;exitX=0.5;exitY=0;exitDx=0;exitDy=0;" parent="e3ZQKRUdp-5UI-5q3_ky-8" source="e3ZQKRUdp-5UI-5q3_ky-5" target="e3ZQKRUdp-5UI-5q3_ky-11" edge="1">
                    <mxGeometry width="160" relative="1" as="geometry">
                        <mxPoint x="130" y="390" as="sourcePoint"/>
                        <mxPoint x="290" y="390" as="targetPoint"/>
                    </mxGeometry>
                </mxCell>
                <mxCell id="ZSAbU0oCkCaAmeOt5j0z-1" value="Planning Office" style="swimlane;horizontal=0;whiteSpace=wrap;html=1;" parent="e3ZQKRUdp-5UI-5q3_ky-8" vertex="1">
                    <mxGeometry y="20" width="520" height="330" as="geometry"/>
                </mxCell>
                <mxCell id="e3ZQKRUdp-5UI-5q3_ky-9" value="Pending request service" style="ellipse;whiteSpace=wrap;html=1;" parent="ZSAbU0oCkCaAmeOt5j0z-1" vertex="1">
                    <mxGeometry x="60" y="20" width="140" height="70" as="geometry"/>
                </mxCell>
                <mxCell id="e3ZQKRUdp-5UI-5q3_ky-11" value="Fulffiling request service" style="ellipse;whiteSpace=wrap;html=1;" parent="ZSAbU0oCkCaAmeOt5j0z-1" vertex="1">
                    <mxGeometry x="190" y="190" width="140" height="70" as="geometry"/>
                </mxCell>
                <mxCell id="e3ZQKRUdp-5UI-5q3_ky-12" value="&amp;lt;&amp;lt;includes&amp;gt;&amp;gt;" style="endArrow=open;endSize=12;dashed=1;html=1;rounded=0;exitX=0.929;exitY=0.743;exitDx=0;exitDy=0;exitPerimeter=0;" parent="ZSAbU0oCkCaAmeOt5j0z-1" source="e3ZQKRUdp-5UI-5q3_ky-9" target="e3ZQKRUdp-5UI-5q3_ky-11" edge="1">
                    <mxGeometry width="160" relative="1" as="geometry">
                        <mxPoint x="90" y="140" as="sourcePoint"/>
                        <mxPoint x="250" y="140" as="targetPoint"/>
                    </mxGeometry>
                </mxCell>
                <mxCell id="e3ZQKRUdp-5UI-5q3_ky-46" value="Forwarding to another WS" style="ellipse;whiteSpace=wrap;html=1;" parent="ZSAbU0oCkCaAmeOt5j0z-1" vertex="1">
                    <mxGeometry x="350" y="10" width="140" height="70" as="geometry"/>
                </mxCell>
                <mxCell id="e3ZQKRUdp-5UI-5q3_ky-47" value="&amp;lt;&amp;lt;extends&amp;gt;&amp;gt;" style="endArrow=open;endSize=12;dashed=1;html=1;rounded=0;entryX=0;entryY=1;entryDx=0;entryDy=0;exitX=0.643;exitY=0;exitDx=0;exitDy=0;exitPerimeter=0;" parent="ZSAbU0oCkCaAmeOt5j0z-1" source="e3ZQKRUdp-5UI-5q3_ky-11" target="e3ZQKRUdp-5UI-5q3_ky-46" edge="1">
                    <mxGeometry width="160" relative="1" as="geometry">
                        <mxPoint x="290" y="240" as="sourcePoint"/>
                        <mxPoint x="290" y="40" as="targetPoint"/>
                    </mxGeometry>
                </mxCell>
                <mxCell id="e3ZQKRUdp-5UI-5q3_ky-33" value="" style="ellipse;html=1;shape=endState;fillColor=#000000;strokeColor=#ff0000;" parent="ZSAbU0oCkCaAmeOt5j0z-1" vertex="1">
                    <mxGeometry x="370" y="280" width="30" height="30" as="geometry"/>
                </mxCell>
                <mxCell id="e3ZQKRUdp-5UI-5q3_ky-43" value="" style="endArrow=none;html=1;rounded=0;entryX=0.914;entryY=0.8;entryDx=0;entryDy=0;entryPerimeter=0;" parent="ZSAbU0oCkCaAmeOt5j0z-1" target="e3ZQKRUdp-5UI-5q3_ky-11" edge="1">
                    <mxGeometry width="50" height="50" relative="1" as="geometry">
                        <mxPoint x="370" y="290" as="sourcePoint"/>
                        <mxPoint x="500" y="100" as="targetPoint"/>
                    </mxGeometry>
                </mxCell>
                <mxCell id="ZSAbU0oCkCaAmeOt5j0z-5" value="Workshop" style="swimlane;horizontal=0;whiteSpace=wrap;html=1;" parent="e3ZQKRUdp-5UI-5q3_ky-8" vertex="1">
                    <mxGeometry y="350" width="520" height="270" as="geometry"/>
                </mxCell>
                <mxCell id="e3ZQKRUdp-5UI-5q3_ky-5" value="Generate MO" style="ellipse;whiteSpace=wrap;html=1;" parent="ZSAbU0oCkCaAmeOt5j0z-5" vertex="1">
                    <mxGeometry x="190" y="80" width="140" height="70" as="geometry"/>
                </mxCell>
                <mxCell id="e3ZQKRUdp-5UI-5q3_ky-10" value="&amp;lt;&amp;lt;includes&amp;gt;&amp;gt;" style="endArrow=open;endSize=12;dashed=1;html=1;rounded=0;exitX=1;exitY=0.5;exitDx=0;exitDy=0;entryX=0;entryY=0.5;entryDx=0;entryDy=0;" parent="1" source="e3ZQKRUdp-5UI-5q3_ky-3" target="e3ZQKRUdp-5UI-5q3_ky-9" edge="1">
                    <mxGeometry width="160" relative="1" as="geometry">
                        <mxPoint x="290" y="160" as="sourcePoint"/>
                        <mxPoint x="450" y="160" as="targetPoint"/>
                    </mxGeometry>
                </mxCell>
                <mxCell id="e3ZQKRUdp-5UI-5q3_ky-13" value="Maintainer" style="shape=umlActor;verticalLabelPosition=bottom;verticalAlign=top;html=1;" parent="1" vertex="1">
                    <mxGeometry x="1010" y="485" width="30" height="60" as="geometry"/>
                </mxCell>
                <mxCell id="e3ZQKRUdp-5UI-5q3_ky-17" value="" style="endArrow=none;html=1;rounded=0;exitX=1;exitY=0.5;exitDx=0;exitDy=0;" parent="1" source="e3ZQKRUdp-5UI-5q3_ky-5" target="e3ZQKRUdp-5UI-5q3_ky-13" edge="1">
                    <mxGeometry width="50" height="50" relative="1" as="geometry">
                        <mxPoint x="860" y="300" as="sourcePoint"/>
                        <mxPoint x="650" y="410" as="targetPoint"/>
                    </mxGeometry>
                </mxCell>
                <mxCell id="e3ZQKRUdp-5UI-5q3_ky-19" value="&amp;lt;&amp;lt;extends&amp;gt;&amp;gt;" style="endArrow=open;endSize=12;dashed=1;html=1;rounded=0;exitX=1;exitY=0.5;exitDx=0;exitDy=0;entryX=0;entryY=0.5;entryDx=0;entryDy=0;" parent="1" source="e3ZQKRUdp-5UI-5q3_ky-18" target="e3ZQKRUdp-5UI-5q3_ky-11" edge="1">
                    <mxGeometry width="160" relative="1" as="geometry">
                        <mxPoint x="320" y="330" as="sourcePoint"/>
                        <mxPoint x="760" y="150" as="targetPoint"/>
                    </mxGeometry>
                </mxCell>
                <mxCell id="e3ZQKRUdp-5UI-5q3_ky-23" value="Customer" style="shape=umlActor;verticalLabelPosition=bottom;verticalAlign=top;html=1;" parent="1" vertex="1">
                    <mxGeometry x="20" y="480" width="30" height="60" as="geometry"/>
                </mxCell>
                <mxCell id="e3ZQKRUdp-5UI-5q3_ky-29" value="&amp;lt;&amp;lt;extends&amp;gt;&amp;gt;" style="endArrow=open;endSize=12;dashed=1;html=1;rounded=0;entryX=1;entryY=0.5;entryDx=0;entryDy=0;exitX=0;exitY=0.5;exitDx=0;exitDy=0;" parent="1" source="e3ZQKRUdp-5UI-5q3_ky-5" target="e3ZQKRUdp-5UI-5q3_ky-20" edge="1">
                    <mxGeometry width="160" relative="1" as="geometry">
                        <mxPoint x="410" y="505" as="sourcePoint"/>
                        <mxPoint x="460" y="450" as="targetPoint"/>
                    </mxGeometry>
                </mxCell>
                <mxCell id="e3ZQKRUdp-5UI-5q3_ky-32" value="" style="endArrow=none;html=1;rounded=0;entryX=0;entryY=0.5;entryDx=0;entryDy=0;" parent="1" source="e3ZQKRUdp-5UI-5q3_ky-23" target="e3ZQKRUdp-5UI-5q3_ky-20" edge="1">
                    <mxGeometry width="50" height="50" relative="1" as="geometry">
                        <mxPoint x="70" y="520" as="sourcePoint"/>
                        <mxPoint x="120" y="470" as="targetPoint"/>
                    </mxGeometry>
                </mxCell>
                <mxCell id="e3ZQKRUdp-5UI-5q3_ky-49" value="" style="endArrow=none;html=1;rounded=0;exitX=1;exitY=0.3333333333333333;exitDx=0;exitDy=0;exitPerimeter=0;" parent="1" source="e3ZQKRUdp-5UI-5q3_ky-1" target="e3ZQKRUdp-5UI-5q3_ky-18" edge="1">
                    <mxGeometry width="50" height="50" relative="1" as="geometry">
                        <mxPoint x="70" y="250" as="sourcePoint"/>
                        <mxPoint x="120" y="200" as="targetPoint"/>
                    </mxGeometry>
                </mxCell>
                <mxCell id="ZSAbU0oCkCaAmeOt5j0z-3" value="Mainteinar Chief" style="shape=umlActor;verticalLabelPosition=bottom;verticalAlign=top;html=1;outlineConnect=0;" parent="1" vertex="1">
                    <mxGeometry x="1010" y="210" width="30" height="60" as="geometry"/>
                </mxCell>
                <mxCell id="ZSAbU0oCkCaAmeOt5j0z-4" value="" style="endArrow=none;html=1;rounded=0;exitX=1;exitY=0.5;exitDx=0;exitDy=0;" parent="1" source="e3ZQKRUdp-5UI-5q3_ky-11" target="ZSAbU0oCkCaAmeOt5j0z-3" edge="1">
                    <mxGeometry width="50" height="50" relative="1" as="geometry">
                        <mxPoint x="890" y="310" as="sourcePoint"/>
                        <mxPoint x="940" y="260" as="targetPoint"/>
                    </mxGeometry>
                </mxCell>
                <mxCell id="ZSAbU0oCkCaAmeOt5j0z-9" value="" style="endArrow=classic;html=1;rounded=0;exitX=0.5;exitY=0;exitDx=0;exitDy=0;exitPerimeter=0;" parent="1" source="e3ZQKRUdp-5UI-5q3_ky-13" target="ZSAbU0oCkCaAmeOt5j0z-3" edge="1">
                    <mxGeometry width="50" height="50" relative="1" as="geometry">
                        <mxPoint x="1025" y="535" as="sourcePoint"/>
                        <mxPoint x="1025" y="270" as="targetPoint"/>
                    </mxGeometry>
                </mxCell>
                <mxCell id="ZSAbU0oCkCaAmeOt5j0z-8" value="&amp;lt;&amp;lt;inherits&amp;gt;&amp;gt;" style="text;html=1;strokeColor=none;fillColor=none;align=center;verticalAlign=middle;whiteSpace=wrap;rounded=0;" parent="1" vertex="1">
                    <mxGeometry x="995" y="380" width="60" height="30" as="geometry"/>
                </mxCell>
                <mxCell id="ZSAbU0oCkCaAmeOt5j0z-12" value="Contexto D 01" style="swimlane;whiteSpace=wrap;html=1;" parent="1" vertex="1">
                    <mxGeometry x="200" y="730" width="340" height="270" as="geometry"/>
                </mxCell>
                <mxCell id="ZSAbU0oCkCaAmeOt5j0z-13" value="Solicitar serviço" style="ellipse;whiteSpace=wrap;html=1;" parent="ZSAbU0oCkCaAmeOt5j0z-12" vertex="1">
                    <mxGeometry x="190" y="190" width="140" height="70" as="geometry"/>
                </mxCell>
                <mxCell id="ZSAbU0oCkCaAmeOt5j0z-24" value="Manter cliente" style="ellipse;whiteSpace=wrap;html=1;" parent="ZSAbU0oCkCaAmeOt5j0z-12" vertex="1">
                    <mxGeometry x="20" y="30" width="140" height="70" as="geometry"/>
                </mxCell>
                <mxCell id="ZSAbU0oCkCaAmeOt5j0z-25" value="&amp;lt;&amp;lt;extends&amp;gt;&amp;gt;" style="endArrow=open;endSize=12;dashed=1;html=1;rounded=0;entryX=0.107;entryY=0.143;entryDx=0;entryDy=0;entryPerimeter=0;exitX=0.736;exitY=0.971;exitDx=0;exitDy=0;exitPerimeter=0;" parent="ZSAbU0oCkCaAmeOt5j0z-12" source="ZSAbU0oCkCaAmeOt5j0z-24" target="ZSAbU0oCkCaAmeOt5j0z-13" edge="1">
                    <mxGeometry width="160" relative="1" as="geometry">
                        <mxPoint x="130" y="80" as="sourcePoint"/>
                        <mxPoint x="290" y="80" as="targetPoint"/>
                    </mxGeometry>
                </mxCell>
                <mxCell id="ZSAbU0oCkCaAmeOt5j0z-14" value="Usuario" style="shape=umlActor;verticalLabelPosition=bottom;verticalAlign=top;html=1;" parent="1" vertex="1">
                    <mxGeometry x="70" y="750" width="30" height="60" as="geometry"/>
                </mxCell>
                <mxCell id="ZSAbU0oCkCaAmeOt5j0z-29" value="Atendente" style="shape=umlActor;verticalLabelPosition=bottom;verticalAlign=top;html=1;outlineConnect=0;" parent="1" vertex="1">
                    <mxGeometry x="70" y="930" width="30" height="60" as="geometry"/>
                </mxCell>
                <mxCell id="ZSAbU0oCkCaAmeOt5j0z-30" value="" style="endArrow=classic;html=1;rounded=0;" parent="1" source="ZSAbU0oCkCaAmeOt5j0z-29" target="ZSAbU0oCkCaAmeOt5j0z-14" edge="1">
                    <mxGeometry width="50" height="50" relative="1" as="geometry">
                        <mxPoint x="70" y="910" as="sourcePoint"/>
                        <mxPoint x="120" y="860" as="targetPoint"/>
                    </mxGeometry>
                </mxCell>
                <mxCell id="ZSAbU0oCkCaAmeOt5j0z-31" value="&amp;lt;&amp;lt;inherits&amp;gt;&amp;gt;" style="text;html=1;strokeColor=none;fillColor=none;align=center;verticalAlign=middle;whiteSpace=wrap;rounded=0;" parent="1" vertex="1">
                    <mxGeometry x="55" y="870" width="60" height="30" as="geometry"/>
                </mxCell>
                <mxCell id="ZSAbU0oCkCaAmeOt5j0z-33" value="" style="endArrow=none;html=1;rounded=0;entryX=0;entryY=0.5;entryDx=0;entryDy=0;" parent="1" source="ZSAbU0oCkCaAmeOt5j0z-29" target="ZSAbU0oCkCaAmeOt5j0z-13" edge="1">
                    <mxGeometry width="50" height="50" relative="1" as="geometry">
                        <mxPoint x="140" y="980" as="sourcePoint"/>
                        <mxPoint x="190" y="930" as="targetPoint"/>
                    </mxGeometry>
                </mxCell>
                <mxCell id="ZSAbU0oCkCaAmeOt5j0z-34" value="" style="endArrow=none;html=1;rounded=0;entryX=0;entryY=1;entryDx=0;entryDy=0;" parent="1" target="ZSAbU0oCkCaAmeOt5j0z-24" edge="1">
                    <mxGeometry width="50" height="50" relative="1" as="geometry">
                        <mxPoint x="100" y="940" as="sourcePoint"/>
                        <mxPoint x="150" y="890" as="targetPoint"/>
                    </mxGeometry>
                </mxCell>
                <mxCell id="ZSAbU0oCkCaAmeOt5j0z-35" value="Centro de trabalho - Contexto D 02" style="swimlane;whiteSpace=wrap;html=1;" parent="1" vertex="1">
                    <mxGeometry x="740" y="730" width="560" height="570" as="geometry"/>
                </mxCell>
                <mxCell id="ZSAbU0oCkCaAmeOt5j0z-36" value="Planejamento" style="swimlane;horizontal=0;whiteSpace=wrap;html=1;" parent="ZSAbU0oCkCaAmeOt5j0z-35" vertex="1">
                    <mxGeometry y="20" width="560" height="250" as="geometry"/>
                </mxCell>
                <mxCell id="ZSAbU0oCkCaAmeOt5j0z-40" value="Fila de trabalho" style="swimlane;whiteSpace=wrap;html=1;" parent="ZSAbU0oCkCaAmeOt5j0z-36" vertex="1">
                    <mxGeometry x="20" width="230" height="250" as="geometry"/>
                </mxCell>
                <mxCell id="ZSAbU0oCkCaAmeOt5j0z-38" value="Atender Solicitação pendente" style="ellipse;whiteSpace=wrap;html=1;" parent="ZSAbU0oCkCaAmeOt5j0z-40" vertex="1">
                    <mxGeometry x="60" y="100" width="140" height="70" as="geometry"/>
                </mxCell>
                <mxCell id="ZSAbU0oCkCaAmeOt5j0z-41" value="" style="ellipse;html=1;shape=endState;fillColor=#000000;strokeColor=#ff0000;" parent="ZSAbU0oCkCaAmeOt5j0z-40" vertex="1">
                    <mxGeometry x="10" y="30" width="30" height="30" as="geometry"/>
                </mxCell>
                <mxCell id="ZSAbU0oCkCaAmeOt5j0z-42" value="" style="endArrow=none;html=1;rounded=0;entryX=1;entryY=1;entryDx=0;entryDy=0;" parent="ZSAbU0oCkCaAmeOt5j0z-40" source="ZSAbU0oCkCaAmeOt5j0z-38" target="ZSAbU0oCkCaAmeOt5j0z-41" edge="1">
                    <mxGeometry width="50" height="50" relative="1" as="geometry">
                        <mxPoint y="120" as="sourcePoint"/>
                        <mxPoint x="50" y="70" as="targetPoint"/>
                    </mxGeometry>
                </mxCell>
                <mxCell id="ZSAbU0oCkCaAmeOt5j0z-47" value="Triar para outro CT" style="ellipse;whiteSpace=wrap;html=1;" parent="ZSAbU0oCkCaAmeOt5j0z-36" vertex="1">
                    <mxGeometry x="360" y="10" width="140" height="70" as="geometry"/>
                </mxCell>
                <mxCell id="ZSAbU0oCkCaAmeOt5j0z-48" value="&amp;lt;&amp;lt;extends&amp;gt;&amp;gt;" style="endArrow=open;endSize=12;dashed=1;html=1;rounded=0;exitX=0;exitY=0.5;exitDx=0;exitDy=0;entryX=1;entryY=0;entryDx=0;entryDy=0;" parent="ZSAbU0oCkCaAmeOt5j0z-36" source="ZSAbU0oCkCaAmeOt5j0z-47" target="ZSAbU0oCkCaAmeOt5j0z-38" edge="1">
                    <mxGeometry width="160" relative="1" as="geometry">
                        <mxPoint x="-30" y="210" as="sourcePoint"/>
                        <mxPoint x="130" y="210" as="targetPoint"/>
                    </mxGeometry>
                </mxCell>
                <mxCell id="k3meBmJ6uuLzGoHKEfW_-1" value="Triar para oficina" style="ellipse;whiteSpace=wrap;html=1;" parent="ZSAbU0oCkCaAmeOt5j0z-36" vertex="1">
                    <mxGeometry x="360" y="140" width="140" height="70" as="geometry"/>
                </mxCell>
                <mxCell id="k3meBmJ6uuLzGoHKEfW_-5" value="&amp;lt;&amp;lt;extends&amp;gt;&amp;gt;" style="endArrow=open;endSize=12;dashed=1;html=1;rounded=0;exitX=0;exitY=0.5;exitDx=0;exitDy=0;entryX=1;entryY=0.5;entryDx=0;entryDy=0;" parent="ZSAbU0oCkCaAmeOt5j0z-36" source="k3meBmJ6uuLzGoHKEfW_-1" target="ZSAbU0oCkCaAmeOt5j0z-38" edge="1">
                    <mxGeometry width="160" relative="1" as="geometry">
                        <mxPoint x="230" y="120" as="sourcePoint"/>
                        <mxPoint x="390" y="120" as="targetPoint"/>
                    </mxGeometry>
                </mxCell>
                <mxCell id="ZSAbU0oCkCaAmeOt5j0z-37" value="Oficina" style="swimlane;horizontal=0;whiteSpace=wrap;html=1;" parent="ZSAbU0oCkCaAmeOt5j0z-35" vertex="1">
                    <mxGeometry y="270" width="560" height="300" as="geometry"/>
                </mxCell>
                <mxCell id="ZSAbU0oCkCaAmeOt5j0z-43" value="Gerar Ordem&amp;nbsp;&lt;br&gt;de&amp;nbsp;&lt;br&gt;Serviço" style="ellipse;whiteSpace=wrap;html=1;" parent="ZSAbU0oCkCaAmeOt5j0z-37" vertex="1">
                    <mxGeometry x="80" y="220" width="140" height="70" as="geometry"/>
                </mxCell>
                <mxCell id="ZSAbU0oCkCaAmeOt5j0z-45" value="Avaliar serviço" style="ellipse;whiteSpace=wrap;html=1;" parent="ZSAbU0oCkCaAmeOt5j0z-37" vertex="1">
                    <mxGeometry x="360" y="50" width="140" height="70" as="geometry"/>
                </mxCell>
                <mxCell id="ZSAbU0oCkCaAmeOt5j0z-49" value="Gerar Orçamento" style="ellipse;whiteSpace=wrap;html=1;" parent="ZSAbU0oCkCaAmeOt5j0z-37" vertex="1">
                    <mxGeometry x="40" y="20" width="140" height="70" as="geometry"/>
                </mxCell>
                <mxCell id="ZSAbU0oCkCaAmeOt5j0z-50" value="&amp;lt;&amp;lt;extends&amp;gt;&amp;gt;" style="endArrow=open;endSize=12;dashed=1;html=1;rounded=0;entryX=0;entryY=0;entryDx=0;entryDy=0;exitX=1;exitY=0.5;exitDx=0;exitDy=0;" parent="ZSAbU0oCkCaAmeOt5j0z-37" source="ZSAbU0oCkCaAmeOt5j0z-49" target="ZSAbU0oCkCaAmeOt5j0z-45" edge="1">
                    <mxGeometry width="160" relative="1" as="geometry">
                        <mxPoint x="20" y="140" as="sourcePoint"/>
                        <mxPoint x="180" y="140" as="targetPoint"/>
                    </mxGeometry>
                </mxCell>
                <mxCell id="k3meBmJ6uuLzGoHKEfW_-6" value="&amp;lt;&amp;lt;extends&amp;gt;&amp;gt;" style="endArrow=open;endSize=12;dashed=1;html=1;rounded=0;entryX=0;entryY=1;entryDx=0;entryDy=0;exitX=1;exitY=0.5;exitDx=0;exitDy=0;" parent="ZSAbU0oCkCaAmeOt5j0z-37" source="ZSAbU0oCkCaAmeOt5j0z-43" target="ZSAbU0oCkCaAmeOt5j0z-45" edge="1">
                    <mxGeometry width="160" relative="1" as="geometry">
                        <mxPoint x="250" y="220" as="sourcePoint"/>
                        <mxPoint x="410" y="220" as="targetPoint"/>
                    </mxGeometry>
                </mxCell>
                <mxCell id="2" value="" style="ellipse;html=1;shape=endState;fillColor=#000000;strokeColor=#ff0000;" vertex="1" parent="ZSAbU0oCkCaAmeOt5j0z-37">
                    <mxGeometry x="415" y="160" width="30" height="30" as="geometry"/>
                </mxCell>
                <mxCell id="4" value="" style="endArrow=none;html=1;exitX=0.5;exitY=0;exitDx=0;exitDy=0;entryX=0.5;entryY=1;entryDx=0;entryDy=0;" edge="1" parent="ZSAbU0oCkCaAmeOt5j0z-37" source="2" target="ZSAbU0oCkCaAmeOt5j0z-45">
                    <mxGeometry width="50" height="50" relative="1" as="geometry">
                        <mxPoint x="440" y="180" as="sourcePoint"/>
                        <mxPoint x="490" y="130" as="targetPoint"/>
                    </mxGeometry>
                </mxCell>
                <mxCell id="ZSAbU0oCkCaAmeOt5j0z-44" value="&amp;lt;&amp;lt;extends&amp;gt;&amp;gt;" style="endArrow=open;endSize=12;dashed=1;html=1;rounded=0;entryX=0.5;entryY=1;entryDx=0;entryDy=0;" parent="ZSAbU0oCkCaAmeOt5j0z-35" source="ZSAbU0oCkCaAmeOt5j0z-43" target="ZSAbU0oCkCaAmeOt5j0z-38" edge="1">
                    <mxGeometry width="160" relative="1" as="geometry">
                        <mxPoint x="-30" y="230" as="sourcePoint"/>
                        <mxPoint x="130" y="230" as="targetPoint"/>
                    </mxGeometry>
                </mxCell>
                <mxCell id="5" value="&amp;lt;&amp;lt;includes&amp;gt;&amp;gt;" style="endArrow=open;endSize=12;dashed=1;html=1;exitX=0.5;exitY=1;exitDx=0;exitDy=0;entryX=0.5;entryY=0;entryDx=0;entryDy=0;" edge="1" parent="ZSAbU0oCkCaAmeOt5j0z-35" source="k3meBmJ6uuLzGoHKEfW_-1" target="ZSAbU0oCkCaAmeOt5j0z-45">
                    <mxGeometry width="160" relative="1" as="geometry">
                        <mxPoint x="320" y="280" as="sourcePoint"/>
                        <mxPoint x="480" y="280" as="targetPoint"/>
                    </mxGeometry>
                </mxCell>
                <mxCell id="ZSAbU0oCkCaAmeOt5j0z-39" value="&amp;lt;&amp;lt;includes&amp;gt;&amp;gt;" style="endArrow=open;endSize=12;dashed=1;html=1;rounded=0;entryX=0.014;entryY=0.629;entryDx=0;entryDy=0;entryPerimeter=0;exitX=1;exitY=0;exitDx=0;exitDy=0;" parent="1" source="ZSAbU0oCkCaAmeOt5j0z-13" target="ZSAbU0oCkCaAmeOt5j0z-38" edge="1">
                    <mxGeometry width="160" relative="1" as="geometry">
                        <mxPoint x="520" y="959.5" as="sourcePoint"/>
                        <mxPoint x="680" y="959.5" as="targetPoint"/>
                    </mxGeometry>
                </mxCell>
                <mxCell id="ZSAbU0oCkCaAmeOt5j0z-51" value="Contexto D 03" style="swimlane;whiteSpace=wrap;html=1;" parent="1" vertex="1">
                    <mxGeometry x="200" y="1010" width="340" height="310" as="geometry"/>
                </mxCell>
                <mxCell id="ZSAbU0oCkCaAmeOt5j0z-52" value="Aprovar Orçamento pendente" style="ellipse;whiteSpace=wrap;html=1;" parent="ZSAbU0oCkCaAmeOt5j0z-51" vertex="1">
                    <mxGeometry x="110" y="90" width="140" height="70" as="geometry"/>
                </mxCell>
                <mxCell id="ZSAbU0oCkCaAmeOt5j0z-55" value="" style="ellipse;html=1;shape=endState;fillColor=#000000;strokeColor=#ff0000;" parent="ZSAbU0oCkCaAmeOt5j0z-51" vertex="1">
                    <mxGeometry x="50" y="200" width="30" height="30" as="geometry"/>
                </mxCell>
                <mxCell id="ZSAbU0oCkCaAmeOt5j0z-56" value="" style="endArrow=none;html=1;rounded=0;entryX=0;entryY=1;entryDx=0;entryDy=0;exitX=1;exitY=0;exitDx=0;exitDy=0;" parent="ZSAbU0oCkCaAmeOt5j0z-51" source="ZSAbU0oCkCaAmeOt5j0z-55" target="ZSAbU0oCkCaAmeOt5j0z-52" edge="1">
                    <mxGeometry width="50" height="50" relative="1" as="geometry">
                        <mxPoint x="80" y="185" as="sourcePoint"/>
                        <mxPoint x="130" y="135" as="targetPoint"/>
                    </mxGeometry>
                </mxCell>
                <mxCell id="ZSAbU0oCkCaAmeOt5j0z-54" value="&amp;lt;&amp;lt;includes&amp;gt;&amp;gt;" style="endArrow=open;endSize=12;dashed=1;html=1;rounded=0;entryX=1;entryY=0.5;entryDx=0;entryDy=0;exitX=0;exitY=0.5;exitDx=0;exitDy=0;" parent="1" source="ZSAbU0oCkCaAmeOt5j0z-49" target="ZSAbU0oCkCaAmeOt5j0z-52" edge="1">
                    <mxGeometry width="160" relative="1" as="geometry">
                        <mxPoint x="500" y="1170" as="sourcePoint"/>
                        <mxPoint x="660" y="1170" as="targetPoint"/>
                    </mxGeometry>
                </mxCell>
                <mxCell id="ZSAbU0oCkCaAmeOt5j0z-57" value="" style="endArrow=none;html=1;rounded=0;entryX=0.014;entryY=0.414;entryDx=0;entryDy=0;entryPerimeter=0;" parent="1" source="ZSAbU0oCkCaAmeOt5j0z-29" target="ZSAbU0oCkCaAmeOt5j0z-52" edge="1">
                    <mxGeometry width="50" height="50" relative="1" as="geometry">
                        <mxPoint x="130" y="1070" as="sourcePoint"/>
                        <mxPoint x="180" y="1020" as="targetPoint"/>
                    </mxGeometry>
                </mxCell>
                <mxCell id="ZSAbU0oCkCaAmeOt5j0z-58" value="&amp;lt;&amp;lt;extends&amp;gt;&amp;gt;" style="endArrow=open;endSize=12;dashed=1;html=1;rounded=0;exitX=0;exitY=0.5;exitDx=0;exitDy=0;entryX=1;entryY=1;entryDx=0;entryDy=0;" parent="1" source="ZSAbU0oCkCaAmeOt5j0z-43" target="ZSAbU0oCkCaAmeOt5j0z-52" edge="1">
                    <mxGeometry width="160" relative="1" as="geometry">
                        <mxPoint x="500" y="1164.5" as="sourcePoint"/>
                        <mxPoint x="660" y="1164.5" as="targetPoint"/>
                    </mxGeometry>
                </mxCell>
                <mxCell id="k3meBmJ6uuLzGoHKEfW_-7" value="Chefe de oficina" style="shape=umlActor;verticalLabelPosition=bottom;verticalAlign=top;html=1;" parent="1" vertex="1">
                    <mxGeometry x="1500" y="830" width="30" height="60" as="geometry"/>
                </mxCell>
                <mxCell id="k3meBmJ6uuLzGoHKEfW_-9" value="Técnico" style="shape=umlActor;verticalLabelPosition=bottom;verticalAlign=top;html=1;" parent="1" vertex="1">
                    <mxGeometry x="1500" y="1150" width="30" height="60" as="geometry"/>
                </mxCell>
                <mxCell id="k3meBmJ6uuLzGoHKEfW_-10" value="" style="endArrow=classic;html=1;rounded=0;exitX=0.5;exitY=0;exitDx=0;exitDy=0;exitPerimeter=0;" parent="1" source="k3meBmJ6uuLzGoHKEfW_-9" target="k3meBmJ6uuLzGoHKEfW_-7" edge="1">
                    <mxGeometry width="50" height="50" relative="1" as="geometry">
                        <mxPoint x="1500" y="1110" as="sourcePoint"/>
                        <mxPoint x="1550" y="1060" as="targetPoint"/>
                    </mxGeometry>
                </mxCell>
                <mxCell id="k3meBmJ6uuLzGoHKEfW_-11" value="" style="endArrow=none;html=1;rounded=0;exitX=0.993;exitY=0.6;exitDx=0;exitDy=0;exitPerimeter=0;entryX=0.5;entryY=0;entryDx=0;entryDy=0;entryPerimeter=0;" parent="1" source="ZSAbU0oCkCaAmeOt5j0z-47" target="k3meBmJ6uuLzGoHKEfW_-7" edge="1">
                    <mxGeometry width="50" height="50" relative="1" as="geometry">
                        <mxPoint x="1430" y="900" as="sourcePoint"/>
                        <mxPoint x="1480" y="850" as="targetPoint"/>
                    </mxGeometry>
                </mxCell>
                <mxCell id="k3meBmJ6uuLzGoHKEfW_-12" value="" style="endArrow=none;html=1;rounded=0;entryX=0.5;entryY=0.5;entryDx=0;entryDy=0;entryPerimeter=0;" parent="1" source="k3meBmJ6uuLzGoHKEfW_-1" target="k3meBmJ6uuLzGoHKEfW_-7" edge="1">
                    <mxGeometry width="50" height="50" relative="1" as="geometry">
                        <mxPoint x="1400" y="930" as="sourcePoint"/>
                        <mxPoint x="1450" y="880" as="targetPoint"/>
                    </mxGeometry>
                </mxCell>
                <mxCell id="k3meBmJ6uuLzGoHKEfW_-13" value="" style="endArrow=none;html=1;rounded=0;entryX=0.467;entryY=0.333;entryDx=0;entryDy=0;entryPerimeter=0;" parent="1" source="ZSAbU0oCkCaAmeOt5j0z-38" target="k3meBmJ6uuLzGoHKEfW_-7" edge="1">
                    <mxGeometry width="50" height="50" relative="1" as="geometry">
                        <mxPoint x="1360" y="900" as="sourcePoint"/>
                        <mxPoint x="1410" y="850" as="targetPoint"/>
                    </mxGeometry>
                </mxCell>
                <mxCell id="k3meBmJ6uuLzGoHKEfW_-14" value="" style="endArrow=none;html=1;rounded=0;entryX=0.333;entryY=0.333;entryDx=0;entryDy=0;entryPerimeter=0;exitX=1;exitY=0.5;exitDx=0;exitDy=0;" parent="1" source="ZSAbU0oCkCaAmeOt5j0z-45" target="k3meBmJ6uuLzGoHKEfW_-9" edge="1">
                    <mxGeometry width="50" height="50" relative="1" as="geometry">
                        <mxPoint x="1410" y="1220" as="sourcePoint"/>
                        <mxPoint x="1460" y="1170" as="targetPoint"/>
                    </mxGeometry>
                </mxCell>
                <mxCell id="k3meBmJ6uuLzGoHKEfW_-15" value="" style="endArrow=none;html=1;rounded=0;entryX=0.5;entryY=0.5;entryDx=0;entryDy=0;entryPerimeter=0;exitX=1;exitY=0.5;exitDx=0;exitDy=0;" parent="1" source="ZSAbU0oCkCaAmeOt5j0z-43" target="k3meBmJ6uuLzGoHKEfW_-9" edge="1">
                    <mxGeometry width="50" height="50" relative="1" as="geometry">
                        <mxPoint x="1370" y="1250" as="sourcePoint"/>
                        <mxPoint x="1420" y="1200" as="targetPoint"/>
                    </mxGeometry>
                </mxCell>
                <mxCell id="k3meBmJ6uuLzGoHKEfW_-16" value="" style="endArrow=none;html=1;rounded=0;entryX=0.5;entryY=0.5;entryDx=0;entryDy=0;entryPerimeter=0;exitX=0.436;exitY=1.014;exitDx=0;exitDy=0;exitPerimeter=0;" parent="1" source="ZSAbU0oCkCaAmeOt5j0z-49" target="k3meBmJ6uuLzGoHKEfW_-9" edge="1">
                    <mxGeometry width="50" height="50" relative="1" as="geometry">
                        <mxPoint x="1300" y="1200" as="sourcePoint"/>
                        <mxPoint x="1350" y="1150" as="targetPoint"/>
                    </mxGeometry>
                </mxCell>
                <mxCell id="h3pPsePzPJq1LbFid2Dn-5" value="&amp;lt;&amp;lt;inherits&amp;gt;&amp;gt;" style="text;html=1;strokeColor=none;fillColor=none;align=center;verticalAlign=middle;whiteSpace=wrap;rounded=0;" vertex="1" parent="1">
                    <mxGeometry x="1485" y="1000" width="60" height="30" as="geometry"/>
                </mxCell>
            </root>
        </mxGraphModel>
    </diagram>
    <diagram id="LCO4G1MAq6QbvAQlHJKU" name="Entities and Value Objects(UC)">
        <mxGraphModel grid="1" page="1" gridSize="10" guides="1" tooltips="1" connect="1" arrows="1" fold="1" pageScale="1" pageWidth="2339" pageHeight="3300" math="0" shadow="0">
            <root>
                <mxCell id="0"/>
                <mxCell id="1" parent="0"/>
                <mxCell id="VXYyY3WJkTyWaJ2rLl6d-1" value="Manter Cliente" style="swimlane;fontStyle=0;childLayout=stackLayout;horizontal=1;startSize=30;horizontalStack=0;resizeParent=1;resizeParentMax=0;resizeLast=0;collapsible=1;marginBottom=0;whiteSpace=wrap;html=1;" vertex="1" parent="1">
                    <mxGeometry x="20" y="10" width="140" height="90" as="geometry"/>
                </mxCell>
                <mxCell id="VXYyY3WJkTyWaJ2rLl6d-2" value="Cliente - E" style="text;strokeColor=none;fillColor=none;align=left;verticalAlign=middle;spacingLeft=4;spacingRight=4;overflow=hidden;points=[[0,0.5],[1,0.5]];portConstraint=eastwest;rotatable=0;whiteSpace=wrap;html=1;" vertex="1" parent="VXYyY3WJkTyWaJ2rLl6d-1">
                    <mxGeometry y="30" width="140" height="30" as="geometry"/>
                </mxCell>
                <mxCell id="VXYyY3WJkTyWaJ2rLl6d-3" value="Usuario - E" style="text;strokeColor=none;fillColor=none;align=left;verticalAlign=middle;spacingLeft=4;spacingRight=4;overflow=hidden;points=[[0,0.5],[1,0.5]];portConstraint=eastwest;rotatable=0;whiteSpace=wrap;html=1;" vertex="1" parent="VXYyY3WJkTyWaJ2rLl6d-1">
                    <mxGeometry y="60" width="140" height="30" as="geometry"/>
                </mxCell>
                <mxCell id="zUlF70JtJmVIkbvZiuXY-1" value="Solicitar Servico" style="swimlane;fontStyle=0;childLayout=stackLayout;horizontal=1;startSize=30;horizontalStack=0;resizeParent=1;resizeParentMax=0;resizeLast=0;collapsible=1;marginBottom=0;whiteSpace=wrap;html=1;" vertex="1" parent="1">
                    <mxGeometry x="230" width="140" height="150" as="geometry"/>
                </mxCell>
                <mxCell id="zUlF70JtJmVIkbvZiuXY-2" value="Servico - E" style="text;strokeColor=none;fillColor=none;align=left;verticalAlign=middle;spacingLeft=4;spacingRight=4;overflow=hidden;points=[[0,0.5],[1,0.5]];portConstraint=eastwest;rotatable=0;whiteSpace=wrap;html=1;" vertex="1" parent="zUlF70JtJmVIkbvZiuXY-1">
                    <mxGeometry y="30" width="140" height="30" as="geometry"/>
                </mxCell>
                <mxCell id="zUlF70JtJmVIkbvZiuXY-3" value="Cliente - E" style="text;strokeColor=none;fillColor=none;align=left;verticalAlign=middle;spacingLeft=4;spacingRight=4;overflow=hidden;points=[[0,0.5],[1,0.5]];portConstraint=eastwest;rotatable=0;whiteSpace=wrap;html=1;" vertex="1" parent="zUlF70JtJmVIkbvZiuXY-1">
                    <mxGeometry y="60" width="140" height="30" as="geometry"/>
                </mxCell>
                <mxCell id="zUlF70JtJmVIkbvZiuXY-4" value="Usuario - E" style="text;strokeColor=none;fillColor=none;align=left;verticalAlign=middle;spacingLeft=4;spacingRight=4;overflow=hidden;points=[[0,0.5],[1,0.5]];portConstraint=eastwest;rotatable=0;whiteSpace=wrap;html=1;" vertex="1" parent="zUlF70JtJmVIkbvZiuXY-1">
                    <mxGeometry y="90" width="140" height="30" as="geometry"/>
                </mxCell>
                <mxCell id="h54al7RxvNmWgCCIllQS-1" value="Centro de trabalho - E" style="text;strokeColor=none;fillColor=none;align=left;verticalAlign=middle;spacingLeft=4;spacingRight=4;overflow=hidden;points=[[0,0.5],[1,0.5]];portConstraint=eastwest;rotatable=0;whiteSpace=wrap;html=1;" vertex="1" parent="zUlF70JtJmVIkbvZiuXY-1">
                    <mxGeometry y="120" width="140" height="30" as="geometry"/>
                </mxCell>
            </root>
        </mxGraphModel>
    </diagram>
    <diagram id="Yjx9MLY_O6I85etlj17y" name="Class Diagram">
        <mxGraphModel dx="1271" dy="682" grid="1" gridSize="10" guides="1" tooltips="1" connect="1" arrows="1" fold="1" page="1" pageScale="1" pageWidth="2339" pageHeight="3300" math="0" shadow="0">
            <root>
                <mxCell id="0"/>
                <mxCell id="1" parent="0"/>
                <mxCell id="EsjltVSrTqm35QXxiJ0v-1" value="Ciente" style="swimlane;fontStyle=0;childLayout=stackLayout;horizontal=1;startSize=30;horizontalStack=0;resizeParent=1;resizeParentMax=0;resizeLast=0;collapsible=1;marginBottom=0;whiteSpace=wrap;html=1;" vertex="1" parent="1">
                    <mxGeometry x="150" y="45" width="140" height="240" as="geometry"/>
                </mxCell>
                <mxCell id="EsjltVSrTqm35QXxiJ0v-2" value="ID" style="text;strokeColor=none;fillColor=none;align=left;verticalAlign=middle;spacingLeft=4;spacingRight=4;overflow=hidden;points=[[0,0.5],[1,0.5]];portConstraint=eastwest;rotatable=0;whiteSpace=wrap;html=1;" vertex="1" parent="EsjltVSrTqm35QXxiJ0v-1">
                    <mxGeometry y="30" width="140" height="30" as="geometry"/>
                </mxCell>
                <mxCell id="EsjltVSrTqm35QXxiJ0v-3" value="nome" style="text;strokeColor=none;fillColor=none;align=left;verticalAlign=middle;spacingLeft=4;spacingRight=4;overflow=hidden;points=[[0,0.5],[1,0.5]];portConstraint=eastwest;rotatable=0;whiteSpace=wrap;html=1;" vertex="1" parent="EsjltVSrTqm35QXxiJ0v-1">
                    <mxGeometry y="60" width="140" height="30" as="geometry"/>
                </mxCell>
                <mxCell id="EsjltVSrTqm35QXxiJ0v-4" value="sobrenome" style="text;strokeColor=none;fillColor=none;align=left;verticalAlign=middle;spacingLeft=4;spacingRight=4;overflow=hidden;points=[[0,0.5],[1,0.5]];portConstraint=eastwest;rotatable=0;whiteSpace=wrap;html=1;" vertex="1" parent="EsjltVSrTqm35QXxiJ0v-1">
                    <mxGeometry y="90" width="140" height="30" as="geometry"/>
                </mxCell>
                <mxCell id="EsjltVSrTqm35QXxiJ0v-5" value="cpf" style="text;strokeColor=none;fillColor=none;align=left;verticalAlign=middle;spacingLeft=4;spacingRight=4;overflow=hidden;points=[[0,0.5],[1,0.5]];portConstraint=eastwest;rotatable=0;whiteSpace=wrap;html=1;" vertex="1" parent="EsjltVSrTqm35QXxiJ0v-1">
                    <mxGeometry y="120" width="140" height="30" as="geometry"/>
                </mxCell>
                <mxCell id="EsjltVSrTqm35QXxiJ0v-6" value="telefone" style="text;strokeColor=none;fillColor=none;align=left;verticalAlign=middle;spacingLeft=4;spacingRight=4;overflow=hidden;points=[[0,0.5],[1,0.5]];portConstraint=eastwest;rotatable=0;whiteSpace=wrap;html=1;" vertex="1" parent="EsjltVSrTqm35QXxiJ0v-1">
                    <mxGeometry y="150" width="140" height="30" as="geometry"/>
                </mxCell>
                <mxCell id="EsjltVSrTqm35QXxiJ0v-7" value="endereco[]" style="text;strokeColor=none;fillColor=none;align=left;verticalAlign=middle;spacingLeft=4;spacingRight=4;overflow=hidden;points=[[0,0.5],[1,0.5]];portConstraint=eastwest;rotatable=0;whiteSpace=wrap;html=1;" vertex="1" parent="EsjltVSrTqm35QXxiJ0v-1">
                    <mxGeometry y="180" width="140" height="30" as="geometry"/>
                </mxCell>
                <mxCell id="EsjltVSrTqm35QXxiJ0v-8" value="userID" style="text;strokeColor=none;fillColor=none;align=left;verticalAlign=middle;spacingLeft=4;spacingRight=4;overflow=hidden;points=[[0,0.5],[1,0.5]];portConstraint=eastwest;rotatable=0;whiteSpace=wrap;html=1;" vertex="1" parent="EsjltVSrTqm35QXxiJ0v-1">
                    <mxGeometry y="210" width="140" height="30" as="geometry"/>
                </mxCell>
                <mxCell id="b5G8uAh5bM94cywOZ5jP-1" value="Pedido de Servico" style="swimlane;fontStyle=0;childLayout=stackLayout;horizontal=1;startSize=30;horizontalStack=0;resizeParent=1;resizeParentMax=0;resizeLast=0;collapsible=1;marginBottom=0;whiteSpace=wrap;html=1;" vertex="1" parent="1">
                    <mxGeometry x="400" y="45" width="170" height="270" as="geometry"/>
                </mxCell>
                <mxCell id="b5G8uAh5bM94cywOZ5jP-2" value="ID" style="text;strokeColor=none;fillColor=none;align=left;verticalAlign=middle;spacingLeft=4;spacingRight=4;overflow=hidden;points=[[0,0.5],[1,0.5]];portConstraint=eastwest;rotatable=0;whiteSpace=wrap;html=1;" vertex="1" parent="b5G8uAh5bM94cywOZ5jP-1">
                    <mxGeometry y="30" width="170" height="30" as="geometry"/>
                </mxCell>
                <mxCell id="b5G8uAh5bM94cywOZ5jP-3" value="descricao" style="text;strokeColor=none;fillColor=none;align=left;verticalAlign=middle;spacingLeft=4;spacingRight=4;overflow=hidden;points=[[0,0.5],[1,0.5]];portConstraint=eastwest;rotatable=0;whiteSpace=wrap;html=1;" vertex="1" parent="b5G8uAh5bM94cywOZ5jP-1">
                    <mxGeometry y="60" width="170" height="30" as="geometry"/>
                </mxCell>
                <mxCell id="b5G8uAh5bM94cywOZ5jP-4" value="tipoServico" style="text;strokeColor=none;fillColor=none;align=left;verticalAlign=middle;spacingLeft=4;spacingRight=4;overflow=hidden;points=[[0,0.5],[1,0.5]];portConstraint=eastwest;rotatable=0;whiteSpace=wrap;html=1;" vertex="1" parent="b5G8uAh5bM94cywOZ5jP-1">
                    <mxGeometry y="90" width="170" height="30" as="geometry"/>
                </mxCell>
                <mxCell id="b5G8uAh5bM94cywOZ5jP-5" value="clienteID" style="text;strokeColor=none;fillColor=none;align=left;verticalAlign=middle;spacingLeft=4;spacingRight=4;overflow=hidden;points=[[0,0.5],[1,0.5]];portConstraint=eastwest;rotatable=0;whiteSpace=wrap;html=1;" vertex="1" parent="b5G8uAh5bM94cywOZ5jP-1">
                    <mxGeometry y="120" width="170" height="30" as="geometry"/>
                </mxCell>
                <mxCell id="b5G8uAh5bM94cywOZ5jP-6" value="usuarioSolicitanteID" style="text;strokeColor=none;fillColor=none;align=left;verticalAlign=middle;spacingLeft=4;spacingRight=4;overflow=hidden;points=[[0,0.5],[1,0.5]];portConstraint=eastwest;rotatable=0;whiteSpace=wrap;html=1;" vertex="1" parent="b5G8uAh5bM94cywOZ5jP-1">
                    <mxGeometry y="150" width="170" height="30" as="geometry"/>
                </mxCell>
                <mxCell id="b5G8uAh5bM94cywOZ5jP-7" value="dataSolicitacao" style="text;strokeColor=none;fillColor=none;align=left;verticalAlign=middle;spacingLeft=4;spacingRight=4;overflow=hidden;points=[[0,0.5],[1,0.5]];portConstraint=eastwest;rotatable=0;whiteSpace=wrap;html=1;" vertex="1" parent="b5G8uAh5bM94cywOZ5jP-1">
                    <mxGeometry y="180" width="170" height="30" as="geometry"/>
                </mxCell>
                <mxCell id="b5G8uAh5bM94cywOZ5jP-8" value="statusPedido" style="text;strokeColor=none;fillColor=none;align=left;verticalAlign=middle;spacingLeft=4;spacingRight=4;overflow=hidden;points=[[0,0.5],[1,0.5]];portConstraint=eastwest;rotatable=0;whiteSpace=wrap;html=1;" vertex="1" parent="b5G8uAh5bM94cywOZ5jP-1">
                    <mxGeometry y="210" width="170" height="30" as="geometry"/>
                </mxCell>
                <mxCell id="b5G8uAh5bM94cywOZ5jP-9" value="centroTrabalhoAtendimentoID" style="text;strokeColor=none;fillColor=none;align=left;verticalAlign=middle;spacingLeft=4;spacingRight=4;overflow=hidden;points=[[0,0.5],[1,0.5]];portConstraint=eastwest;rotatable=0;whiteSpace=wrap;html=1;" vertex="1" parent="b5G8uAh5bM94cywOZ5jP-1">
                    <mxGeometry y="240" width="170" height="30" as="geometry"/>
                </mxCell>
                <mxCell id="0Wq0MxkD_st-TedtdwEQ-1" value="Centro de trabalho" style="swimlane;fontStyle=0;childLayout=stackLayout;horizontal=1;startSize=30;horizontalStack=0;resizeParent=1;resizeParentMax=0;resizeLast=0;collapsible=1;marginBottom=0;whiteSpace=wrap;html=1;" vertex="1" parent="1">
                    <mxGeometry x="650" y="40" width="140" height="180" as="geometry"/>
                </mxCell>
                <mxCell id="0Wq0MxkD_st-TedtdwEQ-2" value="ID" style="text;strokeColor=none;fillColor=none;align=left;verticalAlign=middle;spacingLeft=4;spacingRight=4;overflow=hidden;points=[[0,0.5],[1,0.5]];portConstraint=eastwest;rotatable=0;whiteSpace=wrap;html=1;" vertex="1" parent="0Wq0MxkD_st-TedtdwEQ-1">
                    <mxGeometry y="30" width="140" height="30" as="geometry"/>
                </mxCell>
                <mxCell id="0Wq0MxkD_st-TedtdwEQ-3" value="descricao" style="text;strokeColor=none;fillColor=none;align=left;verticalAlign=middle;spacingLeft=4;spacingRight=4;overflow=hidden;points=[[0,0.5],[1,0.5]];portConstraint=eastwest;rotatable=0;whiteSpace=wrap;html=1;" vertex="1" parent="0Wq0MxkD_st-TedtdwEQ-1">
                    <mxGeometry y="60" width="140" height="30" as="geometry"/>
                </mxCell>
                <mxCell id="0Wq0MxkD_st-TedtdwEQ-4" value="responsaveis[]" style="text;strokeColor=none;fillColor=none;align=left;verticalAlign=middle;spacingLeft=4;spacingRight=4;overflow=hidden;points=[[0,0.5],[1,0.5]];portConstraint=eastwest;rotatable=0;whiteSpace=wrap;html=1;" vertex="1" parent="0Wq0MxkD_st-TedtdwEQ-1">
                    <mxGeometry y="90" width="140" height="30" as="geometry"/>
                </mxCell>
                <mxCell id="0Wq0MxkD_st-TedtdwEQ-5" value="areaAtendimento" style="text;strokeColor=none;fillColor=none;align=left;verticalAlign=middle;spacingLeft=4;spacingRight=4;overflow=hidden;points=[[0,0.5],[1,0.5]];portConstraint=eastwest;rotatable=0;whiteSpace=wrap;html=1;" vertex="1" parent="0Wq0MxkD_st-TedtdwEQ-1">
                    <mxGeometry y="120" width="140" height="30" as="geometry"/>
                </mxCell>
                <mxCell id="0Wq0MxkD_st-TedtdwEQ-6" value="CTResponsavelID" style="text;strokeColor=none;fillColor=none;align=left;verticalAlign=middle;spacingLeft=4;spacingRight=4;overflow=hidden;points=[[0,0.5],[1,0.5]];portConstraint=eastwest;rotatable=0;whiteSpace=wrap;html=1;" vertex="1" parent="0Wq0MxkD_st-TedtdwEQ-1">
                    <mxGeometry y="150" width="140" height="30" as="geometry"/>
                </mxCell>
            </root>
        </mxGraphModel>
    </diagram>
</mxfile>